# xmcd
#
# Track frame offsets: 
#        225
#        17995
#        33068
#        69167
#        89349
#        115005
#        128616
#        157059
#        180459
#        210669
#        233272
#        259119
#        276547
#        302198
#        318288
#        341071
#
# Disc length: 4738 seconds
#
# Revision: 0
# Processed by: cddbd v1.5.2PL0 Copyright (c) Steve Scherf et al.
# Submitted via: ExactAudioCopyFreeDBPlugin 1.0
#
DISCID=d5127f10
DTITLE=Lalah Hathaway - Lalah Hathaway Live (Deluxe Edition)
DYEAR=2015
DGENRE=R&B
TTITLE0=Little Ghetto Boy
TTITLE1=Baby Don't Cry
TTITLE2=I'm Coming Back
TTITLE3=You Were Meant For Me
TTITLE4=Angel
TTITLE5=These Are The Things
TTITLE6=Little Girl - Breathe
TTITLE7=This Is Your Life
TTITLE8=When Your Life Was Low
TTITLE9=Forever, For Always, For Love
TTITLE10=Lean On Me - Featuring Robert Glasper
TTITLE11=Mirror
TTITLE12=Brand New (Bonus Track)
TTITLE13=Whatever (Bonus Track)
TTITLE14=Give It To Me (Bonus Track)
TTITLE15=Love Don't Love Nobody (Bonus Track)
EXTD=
EXTT0=
EXTT1=
EXTT2=
EXTT3=
EXTT4=
EXTT5=
EXTT6=
EXTT7=
EXTT8=
EXTT9=
EXTT10=
EXTT11=
EXTT12=
EXTT13=
EXTT14=
EXTT15=
PLAYORDER=
